<svg width="128" height="176" viewBox="0 0 128 176" fill="none" xmlns="http://www.w3.org/2000/svg">
<path d="M2 42.496C2 33.7928 2.46895 26.9355 3.67113 21.5262C4.86826 16.1396 6.76573 12.3121 9.53892 9.53892C12.3121 6.76573 16.1396 4.86826 21.5262 3.67113C26.9355 2.46895 33.7928 2 42.496 2H85.504C94.2072 2 101.064 2.46895 106.474 3.67113C111.86 4.86826 115.688 6.76573 118.461 9.53892C121.234 12.3121 123.132 16.1396 124.329 21.5262C125.531 26.9355 126 33.7928 126 42.496V133.504C126 142.207 125.531 149.064 124.329 154.474C123.132 159.86 121.234 163.688 118.461 166.461C115.688 169.234 111.86 171.132 106.474 172.329C101.064 173.531 94.2072 174 85.504 174H42.496C33.7928 174 26.9355 173.531 21.5262 172.329C16.1396 171.132 12.3121 169.234 9.53892 166.461C6.76573 163.688 4.86826 159.86 3.67113 154.474C2.46895 149.064 2 142.207 2 133.504V42.496Z" fill="white" stroke="#D8D8D8" stroke-width="4"/>
</svg>
